<svg width="56" height="56" viewBox="0 0 56 56" fill="none" xmlns="http://www.w3.org/2000/svg">
<g clip-path="url(#clip0_245_2970)">
<path d="M28.002 12.251C31.3847 12.251 34.127 9.50872 34.127 6.12598C34.127 2.74323 31.3847 0.000976562 28.002 0.000976562C24.6192 0.000976562 21.877 2.74323 21.877 6.12598C21.877 9.50872 24.6192 12.251 28.002 12.251Z" fill="#345A4B"/>
<path d="M47.7988 14.0004H8.20508C7.42186 14.0004 6.67072 14.3115 6.1169 14.8653C5.56308 15.4191 5.25195 16.1703 5.25195 16.9535C5.25195 17.7367 5.56308 18.4878 6.1169 19.0417C6.67072 19.5955 7.42186 19.9066 8.20508 19.9066H19.3482C20.104 19.9066 20.9888 20.2446 21.4898 21.5472C22.0749 23.0599 21.7884 25.9813 21.4274 28.2443L20.9549 30.9185C20.9558 30.9254 20.9551 30.9325 20.9528 30.9391C20.9505 30.9458 20.9468 30.9518 20.9418 30.9568L17.1574 52.4829C17.0202 53.2643 17.198 54.0682 17.652 54.7188C18.1061 55.3694 18.7993 55.8137 19.5801 55.9544C19.9661 56.0227 20.3618 56.0136 20.7443 55.9277C21.1267 55.8418 21.4883 55.6807 21.8081 55.4539C22.1278 55.2271 22.3993 54.939 22.6067 54.6064C22.8142 54.2738 22.9535 53.9033 23.0166 53.5165L25.6318 38.5539C25.6318 38.5539 26.4707 35.0004 28.002 35.0004C29.5584 35.0004 30.3798 38.5539 30.3798 38.5539L32.9949 53.5296C33.0582 53.9199 33.1985 54.2937 33.4077 54.6292C33.6169 54.9647 33.8907 55.2552 34.2134 55.4838C34.536 55.7124 34.9008 55.8745 35.2867 55.9607C35.6726 56.0468 36.0718 56.0553 36.461 55.9856C36.8502 55.916 37.2216 55.7695 37.5537 55.5548C37.8857 55.3401 38.1717 55.0615 38.3949 54.7352C38.6182 54.4089 38.7742 54.0413 38.854 53.6541C38.9338 53.2668 38.9357 52.8676 38.8596 52.4796L35.0741 30.9535C35.0749 30.9466 35.0743 30.9397 35.0722 30.9331C35.0701 30.9265 35.0667 30.9204 35.0621 30.9152L34.5885 28.241C34.2276 25.978 33.941 23.0566 34.5262 21.5439C35.0249 20.2446 35.9382 19.9033 36.6349 19.9033H47.7988C48.582 19.9033 49.3332 19.5922 49.887 19.0384C50.4408 18.4846 50.752 17.7334 50.752 16.9502C50.752 16.167 50.4408 15.4158 49.887 14.862C49.3332 14.3082 48.582 13.9971 47.7988 13.9971V14.0004Z" fill="#345A4B"/>
</g>
<defs>
<clipPath id="clip0_245_2970">
<rect width="56" height="56" fill="white"/>
</clipPath>
</defs>
</svg>
