<svg width="16" height="15" viewBox="0 0 16 15" fill="none" xmlns="http://www.w3.org/2000/svg">
<path d="M12.31 6.048C12.4823 5.86838 12.6886 5.72495 12.917 5.62612C13.1454 5.52728 13.3913 5.47503 13.6401 5.47243C13.889 5.46982 14.1358 5.51691 14.3662 5.61095C14.5967 5.70498 14.806 5.84406 14.982 6.02003C15.1579 6.19601 15.297 6.40534 15.3911 6.63576C15.4851 6.86617 15.5322 7.11304 15.5296 7.36189C15.527 7.61075 15.4747 7.85658 15.3759 8.08498C15.277 8.31337 15.1336 8.51975 14.954 8.692L10.125 13.522C9.84326 13.8035 9.49038 14.0033 9.104 14.1L7.606 14.475C7.45684 14.5123 7.30058 14.5103 7.15243 14.4692C7.00428 14.4281 6.8693 14.3493 6.76064 14.2406C6.65198 14.1318 6.57334 13.9968 6.5324 13.8486C6.49145 13.7004 6.48959 13.5441 6.527 13.395L6.901 11.898C6.99769 11.5116 7.19746 11.1587 7.479 10.877L12.31 6.048ZM7 6.5C7.934 6.5 8.716 7.141 8.936 8.007L6.773 10.17C6.443 10.5 6.193 10.897 6.033 11.332C5.52975 11.4443 5.01563 11.5006 4.5 11.5C3.325 11.5 2.23 11.228 1.411 10.73C0.591 10.23 0 9.465 0 8.5C0 7.96957 0.210714 7.46086 0.585786 7.08579C0.960859 6.71071 1.46957 6.5 2 6.5H7ZM4.5 0C5.22935 0 5.92882 0.289731 6.44454 0.805456C6.96027 1.32118 7.25 2.02065 7.25 2.75C7.25 3.47935 6.96027 4.17882 6.44454 4.69454C5.92882 5.21027 5.22935 5.5 4.5 5.5C3.77065 5.5 3.07118 5.21027 2.55546 4.69454C2.03973 4.17882 1.75 3.47935 1.75 2.75C1.75 2.02065 2.03973 1.32118 2.55546 0.805456C3.07118 0.289731 3.77065 0 4.5 0ZM11.002 0.997C11.3017 0.990684 11.5996 1.04425 11.8783 1.15456C12.157 1.26487 12.4108 1.42971 12.625 1.63941C12.8392 1.8491 13.0093 2.09944 13.1255 2.37575C13.2416 2.65205 13.3015 2.94877 13.3015 3.2485C13.3015 3.54823 13.2416 3.84495 13.1255 4.12125C13.0093 4.39756 12.8392 4.6479 12.625 4.85759C12.4108 5.06729 12.157 5.23213 11.8783 5.34244C11.5996 5.45275 11.3017 5.50632 11.002 5.5C10.4131 5.48759 9.85247 5.24492 9.44036 4.82404C9.02825 4.40315 8.79745 3.83755 8.79745 3.2485C8.79745 2.65945 9.02825 2.09385 9.44036 1.67296C9.85247 1.25208 10.4131 1.00941 11.002 0.997Z" fill="#DCEFE8"/>
</svg>
