<svg width="24" height="13" viewBox="0 0 24 13" fill="none" xmlns="http://www.w3.org/2000/svg">
<path d="M9.954 0.422H11.116V9.844H9.954V0.422ZM1.078 1.444H7.742V2.396H1.078V1.444ZM0.868 7.94L0.728 6.96C1.428 6.96 2.198 6.95533 3.038 6.946C3.88733 6.92733 4.75067 6.89467 5.628 6.848C6.50533 6.80133 7.34067 6.736 8.134 6.652L8.19 7.52C7.38733 7.65067 6.54733 7.744 5.67 7.8C4.802 7.856 3.95267 7.89333 3.122 7.912C2.30067 7.93067 1.54933 7.94 0.868 7.94ZM2.324 2.27H3.458V7.128H2.324V2.27ZM5.362 2.27H6.482V7.128H5.362V2.27ZM7.84 2.83H10.556V3.782H7.84V2.83ZM7.84 5.238H10.556V6.204H7.84V5.238ZM3.01 11.86H11.452V12.812H3.01V11.86ZM3.01 9.074H4.172V12.462H3.01V9.074ZM16.9529 1.514H17.9049V2.494C17.9049 3.23133 17.7556 3.922 17.4569 4.566C17.1582 5.21 16.7382 5.77 16.1969 6.246C15.6556 6.71267 15.0302 7.06733 14.3209 7.31L13.7329 6.386C14.2089 6.23667 14.6429 6.03133 15.0349 5.77C15.4269 5.50867 15.7629 5.20533 16.0429 4.86C16.3322 4.51467 16.5562 4.14133 16.7149 3.74C16.8736 3.32933 16.9529 2.914 16.9529 2.494V1.514ZM17.1769 1.514H18.1289V2.494C18.1289 2.89533 18.2036 3.28733 18.3529 3.67C18.5116 4.05267 18.7356 4.40733 19.0249 4.734C19.3142 5.06067 19.6549 5.35 20.0469 5.602C20.4389 5.84467 20.8682 6.036 21.3349 6.176L20.7609 7.086C20.0609 6.862 19.4402 6.526 18.8989 6.078C18.3576 5.63 17.9329 5.098 17.6249 4.482C17.3262 3.866 17.1769 3.20333 17.1769 2.494V1.514ZM14.0549 1.262H20.9849V2.2H14.0549V1.262ZM22.7909 0.422H23.9529V7.282H22.7909V0.422ZM15.8049 7.898H16.9389V9.41H22.8049V7.898H23.9529V12.924H15.8049V7.898ZM16.9389 10.334V11.972H22.8049V10.334H16.9389Z" fill="#757575"/>
</svg>
