<svg width="24" height="24" viewBox="0 0 24 24" fill="none" xmlns="http://www.w3.org/2000/svg">
<path d="M19 21C19.55 21 20.0207 20.8043 20.412 20.413C20.8033 20.0217 20.9993 19.5507 21 19V5C21 4.45 20.804 3.97933 20.412 3.588C20.02 3.19667 19.5493 3.00067 19 3H13C12.7167 3 12.479 3.096 12.287 3.288C12.095 3.48 11.9993 3.71733 12 4C12.0007 4.28267 12.0967 4.52033 12.288 4.713C12.4793 4.90567 12.7167 5.00133 13 5H19V19H13C12.7167 19 12.479 19.096 12.287 19.288C12.095 19.48 11.9993 19.7173 12 20C12.0007 20.2827 12.0967 20.5203 12.288 20.713C12.4793 20.9057 12.7167 21.0013 13 21H19ZM6.825 13H14C14.2833 13 14.5207 12.904 14.712 12.712C14.9033 12.52 14.9993 12.2827 15 12C15.0007 11.7173 14.9047 11.48 14.712 11.288C14.5193 11.096 14.282 11 14 11H6.825L8.7 9.125C8.88333 8.94167 8.975 8.71667 8.975 8.45C8.975 8.18333 8.88333 7.95 8.7 7.75C8.51667 7.55 8.28333 7.44567 8 7.437C7.71667 7.42833 7.475 7.52433 7.275 7.725L3.7 11.3C3.5 11.5 3.4 11.7333 3.4 12C3.4 12.2667 3.5 12.5 3.7 12.7L7.275 16.275C7.475 16.475 7.71233 16.571 7.987 16.563C8.26167 16.555 8.49933 16.4507 8.7 16.25C8.88333 16.05 8.97067 15.8127 8.962 15.538C8.95333 15.2633 8.85767 15.034 8.675 14.85L6.825 13Z" fill="#DCEFE8"/>
</svg>
