<svg width="40" height="40" viewBox="0 0 40 40" fill="none" xmlns="http://www.w3.org/2000/svg">
<path d="M20.0007 9.16664L19.1007 10.0333C19.2173 10.1543 19.3571 10.2505 19.5117 10.3162C19.6663 10.382 19.8326 10.4158 20.0007 10.4158C20.1687 10.4158 20.335 10.382 20.4896 10.3162C20.6442 10.2505 20.784 10.1543 20.9007 10.0333L20.0007 9.16664ZM11.669 27.3666C11.4126 27.1558 11.083 27.0554 10.7526 27.0876C10.4222 27.1198 10.1182 27.2819 9.90732 27.5383C9.69647 27.7947 9.5961 28.1243 9.6283 28.4547C9.66049 28.7851 9.82261 29.0891 10.079 29.3L11.669 27.3666ZM3.90398 22.3516C3.98278 22.4957 4.08917 22.6227 4.21707 22.7256C4.34498 22.8285 4.4919 22.9052 4.64945 22.9514C4.807 22.9975 4.9721 23.0121 5.1353 22.9944C5.29851 22.9768 5.45663 22.9271 5.60065 22.8483C5.74467 22.7695 5.87175 22.6631 5.97465 22.5352C6.07756 22.4073 6.15426 22.2604 6.20038 22.1028C6.2465 21.9453 6.26113 21.7802 6.24345 21.617C6.22577 21.4538 6.17611 21.2957 6.09732 21.1516L3.90398 22.3516ZM4.58398 15.2283C4.58398 11.645 6.60898 8.63831 9.37398 7.37331C12.0607 6.14498 15.6707 6.46998 19.1007 10.0333L20.9007 8.30164C16.834 4.07331 12.1073 3.37498 8.33398 5.09998C4.64398 6.78831 2.08398 10.7083 2.08398 15.2283H4.58398ZM14.1623 32.5C15.0173 33.1733 15.934 33.89 16.8623 34.4333C17.7907 34.9766 18.8507 35.4166 20.0007 35.4166V32.9166C19.484 32.9166 18.8773 32.7166 18.124 32.275C17.369 31.835 16.5873 31.2283 15.7107 30.5366L14.1623 32.5ZM25.839 32.5C28.2157 30.625 31.2557 28.4783 33.639 25.7933C36.0673 23.06 37.9173 19.6716 37.9173 15.2283H35.4173C35.4173 18.8916 33.9173 21.7133 31.7707 24.1333C29.579 26.6 26.8173 28.545 24.2907 30.5366L25.839 32.5ZM37.9173 15.2283C37.9173 10.7083 35.359 6.78831 31.6673 5.09998C27.894 3.37498 23.1707 4.07331 19.1007 8.29998L20.9007 10.0333C24.3307 6.47164 27.9406 6.14498 30.6273 7.37331C33.3923 8.63831 35.4173 11.6433 35.4173 15.2283H37.9173ZM24.2907 30.5366C23.414 31.2283 22.6323 31.835 21.8773 32.275C21.1223 32.715 20.5173 32.9166 20.0007 32.9166V35.4166C21.1507 35.4166 22.2107 34.975 23.139 34.4333C24.069 33.89 24.984 33.1733 25.839 32.5L24.2907 30.5366ZM15.7107 30.5366C14.384 29.4916 13.0357 28.4916 11.669 27.3666L10.079 29.3C11.4623 30.4383 12.9257 31.525 14.1623 32.5L15.7107 30.5366ZM6.09732 21.1533C5.09319 19.3407 4.57206 17.3004 4.58398 15.2283H2.08398C2.08398 17.9583 2.78398 20.3033 3.90398 22.3516L6.09732 21.1533Z" fill="#76867D"/>
</svg>
