<svg width="24" height="24" viewBox="0 0 24 24" fill="none" xmlns="http://www.w3.org/2000/svg">
<path d="M11.3367 2.25324C11.5197 2.09073 11.7559 2.00098 12.0007 2.00098C12.2454 2.00098 12.4817 2.09073 12.6647 2.25324L21.6647 10.2532C21.8528 10.432 21.9641 10.6768 21.975 10.9361C21.986 11.1953 21.8957 11.4487 21.7233 11.6426C21.5509 11.8366 21.3099 11.9559 21.0512 11.9754C20.7924 11.9949 20.5362 11.9131 20.3367 11.7472L20.0007 11.4502V19.0002C20.0007 19.5307 19.7899 20.0394 19.4149 20.4145C19.0398 20.7895 18.5311 21.0002 18.0007 21.0002H6.00066C5.47023 21.0002 4.96152 20.7895 4.58645 20.4145C4.21137 20.0394 4.00066 19.5307 4.00066 19.0002V11.4502L3.66466 11.7472C3.46512 11.9131 3.20891 11.9949 2.95016 11.9754C2.69141 11.9559 2.45038 11.8366 2.27798 11.6426C2.10559 11.4487 2.01533 11.1953 2.02628 10.9361C2.03723 10.6768 2.14853 10.432 2.33666 10.2532L11.3367 2.25324ZM6.00066 9.67024V19.0002H9.00066V14.0002C9.00066 13.735 9.10602 13.4807 9.29355 13.2931C9.48109 13.1056 9.73544 13.0002 10.0007 13.0002H14.0007C14.2659 13.0002 14.5202 13.1056 14.7078 13.2931C14.8953 13.4807 15.0007 13.735 15.0007 14.0002V19.0002H18.0007V9.67124L12.0007 4.33824L6.00066 9.67024ZM13.0007 19.0002V15.0002H11.0007V19.0002H13.0007Z" fill="#DCEFE8"/>
</svg>
