<svg width="23" height="22" viewBox="0 0 23 22" fill="none" xmlns="http://www.w3.org/2000/svg">
<path d="M20.4802 8.57368C20.2677 8.60925 20.078 8.72778 19.9529 8.90319C19.8278 9.07861 19.7774 9.29655 19.813 9.50908C19.8955 10.0018 19.9369 10.5005 19.9369 11C19.9388 13.1879 19.1347 15.2998 17.6781 16.9323C16.772 15.6192 15.4978 14.6033 14.0158 14.0124C14.8119 13.3854 15.3927 12.5259 15.6777 11.5534C15.9626 10.581 15.9375 9.5439 15.6057 8.58643C15.2739 7.62895 14.652 6.79866 13.8264 6.21103C13.0009 5.62339 12.0127 5.30761 10.9994 5.30761C9.98605 5.30761 8.9979 5.62339 8.17236 6.21103C7.34681 6.79866 6.7249 7.62895 6.39311 8.58643C6.06132 9.5439 6.03614 10.581 6.32108 11.5534C6.60602 12.5259 7.18692 13.3854 7.98298 14.0124C6.501 14.6033 5.22681 15.6192 4.32064 16.9323C3.17777 15.6444 2.43124 14.0539 2.1708 12.3519C1.91037 10.6498 2.14712 8.90881 2.85259 7.33814C3.55805 5.76747 4.7022 4.43401 6.14746 3.4981C7.59272 2.5622 9.27756 2.06369 10.9994 2.06251C11.4989 2.06243 11.9976 2.10388 12.4903 2.18642C12.7019 2.2198 12.9181 2.16829 13.0919 2.0431C13.2657 1.91791 13.383 1.72916 13.4183 1.51792C13.4537 1.30667 13.4042 1.09001 13.2806 0.915069C13.157 0.74013 12.9694 0.62106 12.7584 0.583762C10.5519 0.212566 8.28456 0.552211 6.28367 1.55366C4.28278 2.5551 2.65193 4.16653 1.62657 6.15527C0.601219 8.14402 0.234425 10.4072 0.579151 12.618C0.923876 14.8288 1.96228 16.8728 3.54444 18.455C5.1266 20.0371 7.17064 21.0755 9.38144 21.4202C11.5922 21.765 13.8554 21.3982 15.8441 20.3728C17.8329 19.3475 19.4443 17.7166 20.4457 15.7157C21.4472 13.7148 21.7868 11.4475 21.4156 9.24095C21.3801 9.02843 21.2615 8.83874 21.0861 8.7136C20.9107 8.58847 20.6928 8.53814 20.4802 8.57368ZM7.74939 10.1875C7.74939 9.54472 7.94 8.91637 8.29711 8.38191C8.65422 7.84745 9.16181 7.43089 9.75566 7.1849C10.3495 6.93892 11.003 6.87456 11.6334 6.99996C12.2639 7.12536 12.843 7.43489 13.2975 7.88941C13.752 8.34394 14.0615 8.92303 14.1869 9.55347C14.3123 10.1839 14.248 10.8374 14.002 11.4312C13.756 12.0251 13.3394 12.5327 12.805 12.8898C12.2705 13.2469 11.6422 13.4375 10.9994 13.4375C10.1374 13.4375 9.31078 13.0951 8.70129 12.4856C8.0918 11.8761 7.74939 11.0495 7.74939 10.1875ZM5.52314 18.0586C6.11091 17.1393 6.92064 16.3828 7.87768 15.8588C8.83472 15.3348 9.90828 15.0601 10.9994 15.0601C12.0905 15.0601 13.1641 15.3348 14.1211 15.8588C15.0781 16.3828 15.8879 17.1393 16.4756 18.0586C14.9099 19.2763 12.9829 19.9374 10.9994 19.9374C9.01585 19.9374 7.08889 19.2763 5.52314 18.0586ZM22.1367 2.63736L18.8867 5.88736C18.8113 5.9629 18.7217 6.02283 18.623 6.06372C18.5244 6.10461 18.4187 6.12565 18.3119 6.12565C18.2051 6.12565 18.0994 6.10461 18.0007 6.06372C17.9021 6.02283 17.8125 5.9629 17.737 5.88736L16.112 4.26236C16.0366 4.18687 15.9767 4.09725 15.9358 3.99862C15.895 3.89998 15.8739 3.79427 15.8739 3.68751C15.8739 3.58075 15.895 3.47504 15.9358 3.37641C15.9767 3.27778 16.0366 3.18816 16.112 3.11267C16.2645 2.96021 16.4713 2.87456 16.6869 2.87456C16.7936 2.87456 16.8994 2.89559 16.998 2.93644C17.0966 2.9773 17.1862 3.03718 17.2617 3.11267L18.3119 4.16384L20.987 1.48767C21.0625 1.41218 21.1522 1.3523 21.2508 1.31144C21.3494 1.27059 21.4551 1.24956 21.5619 1.24956C21.6686 1.24956 21.7744 1.27059 21.873 1.31144C21.9716 1.3523 22.0612 1.41218 22.1367 1.48767C22.2122 1.56316 22.2721 1.65278 22.313 1.75141C22.3538 1.85004 22.3748 1.95575 22.3748 2.06251C22.3748 2.16927 22.3538 2.27498 22.313 2.37362C22.2721 2.47225 22.2122 2.56187 22.1367 2.63736Z" fill="white"/>
</svg>
