<svg width="50" height="40" viewBox="0 0 50 40" fill="none" xmlns="http://www.w3.org/2000/svg">
<path fill-rule="evenodd" clip-rule="evenodd" d="M33.415 21.9966C33.9991 22.5961 34.3272 23.4086 34.3272 24.2558C34.3272 25.1031 33.9991 25.9156 33.415 26.5151L21.6531 38.5743C21.0679 39.1737 20.2743 39.5104 19.447 39.5102C18.6196 39.51 17.8262 39.1729 17.2413 38.5732C16.6564 37.9734 16.3279 37.1601 16.3281 36.3121C16.3283 35.4642 16.6572 34.651 17.2424 34.0515L26.7999 24.2558L17.2424 14.4602C16.6739 13.8575 16.3591 13.05 16.3658 12.2118C16.3725 11.3735 16.7002 10.5715 17.2783 9.97847C17.8563 9.38543 18.6386 9.04883 19.4564 9.04115C20.2743 9.03347 21.0624 9.35534 21.651 9.93743L33.4171 21.9945L33.415 21.9966Z" fill="#6F6F6F"/>
</svg>
