<svg width="40" height="40" viewBox="0 0 40 40" fill="none" xmlns="http://www.w3.org/2000/svg">
<path d="M20.0006 12.4996C18.5172 12.4996 17.0672 12.9395 15.8338 13.7636C14.6004 14.5877 13.6391 15.759 13.0715 17.1295C12.5038 18.4999 12.3553 20.0079 12.6447 21.4628C12.9341 22.9176 13.6484 24.254 14.6973 25.3029C15.7462 26.3518 17.0825 27.0661 18.5374 27.3555C19.9922 27.6449 21.5002 27.4963 22.8707 26.9287C24.2411 26.361 25.4125 25.3997 26.2366 24.1664C27.0607 22.933 27.5006 21.4829 27.5006 19.9996C27.4985 18.0111 26.7077 16.1046 25.3016 14.6986C23.8955 13.2925 21.9891 12.5017 20.0006 12.4996ZM20.0006 24.9996C19.0117 24.9996 18.045 24.7063 17.2227 24.1569C16.4005 23.6075 15.7596 22.8266 15.3812 21.913C15.0027 20.9994 14.9037 19.994 15.0966 19.0241C15.2896 18.0542 15.7658 17.1633 16.465 16.4641C17.1643 15.7648 18.0552 15.2886 19.0251 15.0957C19.995 14.9027 21.0003 15.0017 21.914 15.3802C22.8276 15.7586 23.6085 16.3995 24.1579 17.2217C24.7073 18.044 25.0006 19.0107 25.0006 19.9996C25.0006 21.3257 24.4738 22.5974 23.5361 23.5351C22.5984 24.4728 21.3266 24.9996 20.0006 24.9996ZM33.7506 20.3371C33.7568 20.1121 33.7568 19.8871 33.7506 19.6621L36.0818 16.7496C36.2041 16.5967 36.2887 16.4172 36.3288 16.2256C36.369 16.034 36.3636 15.8356 36.3131 15.6465C35.9309 14.2099 35.3592 12.8306 34.6131 11.5449C34.5154 11.3766 34.3797 11.2335 34.217 11.1269C34.0542 11.0203 33.8688 10.9532 33.6756 10.9308L29.9693 10.5183C29.8151 10.3558 29.6589 10.1996 29.5006 10.0496L29.0631 6.33396C29.0406 6.14054 28.9732 5.95505 28.8663 5.79229C28.7594 5.62952 28.616 5.49398 28.4474 5.39646C27.1612 4.65169 25.7821 4.08057 24.3459 3.69802C24.1566 3.6477 23.9582 3.64256 23.7666 3.683C23.575 3.72344 23.3955 3.80833 23.2428 3.93083L20.3381 6.24958C20.1131 6.24958 19.8881 6.24958 19.6631 6.24958L16.7506 3.92302C16.5976 3.80078 16.4181 3.71617 16.2265 3.67601C16.0349 3.63584 15.8366 3.64124 15.6474 3.69177C14.2111 4.07463 12.8319 4.64628 11.5459 5.39177C11.3776 5.48947 11.2345 5.62509 11.1279 5.78785C11.0213 5.9506 10.9541 6.136 10.9318 6.32927L10.5193 10.0418C10.3568 10.197 10.2006 10.3532 10.0506 10.5105L6.33494 10.9371C6.14152 10.9596 5.95603 11.027 5.79326 11.1338C5.6305 11.2407 5.49495 11.3842 5.39744 11.5527C4.65266 12.8389 4.08155 14.2181 3.699 15.6543C3.64868 15.8435 3.64353 16.042 3.68397 16.2336C3.72441 16.4252 3.80931 16.6046 3.93181 16.7574L6.25056 19.6621C6.25056 19.8871 6.25056 20.1121 6.25056 20.3371L3.924 23.2496C3.80176 23.4025 3.71715 23.582 3.67698 23.7736C3.63682 23.9652 3.64222 24.1636 3.69275 24.3527C4.07492 25.7893 4.64661 27.1686 5.39275 28.4543C5.49044 28.6225 5.62607 28.7657 5.78882 28.8723C5.95158 28.9789 6.13697 29.046 6.33025 29.0683L10.0365 29.4808C10.1917 29.6433 10.348 29.7996 10.5052 29.9496L10.9381 33.6652C10.9606 33.8586 11.0279 34.0441 11.1348 34.2069C11.2417 34.3697 11.3851 34.5052 11.5537 34.6027C12.8399 35.3475 14.2191 35.9186 15.6552 36.3012C15.8445 36.3515 16.0429 36.3566 16.2346 36.3162C16.4262 36.2757 16.6056 36.1908 16.7584 36.0683L19.6631 33.7496C19.8881 33.7558 20.1131 33.7558 20.3381 33.7496L23.2506 36.0808C23.4035 36.2031 23.583 36.2877 23.7746 36.3279C23.9662 36.368 24.1646 36.3626 24.3537 36.3121C25.7902 35.9299 27.1695 35.3582 28.4553 34.6121C28.6235 34.5144 28.7666 34.3788 28.8732 34.216C28.9798 34.0533 29.047 33.8679 29.0693 33.6746L29.4818 29.9683C29.6443 29.8142 29.8006 29.6579 29.9506 29.4996L33.6662 29.0621C33.8596 29.0396 34.0451 28.9722 34.2079 28.8653C34.3706 28.7584 34.5062 28.615 34.6037 28.4465C35.3485 27.1603 35.9196 25.7811 36.3021 24.3449C36.3524 24.1556 36.3576 23.9572 36.3172 23.7656C36.2767 23.574 36.1918 23.3946 36.0693 23.2418L33.7506 20.3371ZM31.2349 19.3215C31.2615 19.7732 31.2615 20.226 31.2349 20.6777C31.2163 20.987 31.3132 21.2921 31.5068 21.534L33.724 24.3043C33.4696 25.1128 33.1438 25.8972 32.7506 26.648L29.2193 27.048C28.9118 27.0822 28.6279 27.2291 28.4224 27.4605C28.1217 27.7988 27.8013 28.1191 27.4631 28.4199C27.2317 28.6253 27.0847 28.9093 27.0506 29.2168L26.6584 32.7449C25.9076 33.1384 25.1232 33.4641 24.3146 33.7183L21.5427 31.5012C21.3209 31.3239 21.0454 31.2275 20.7615 31.2277H20.6865C20.2348 31.2543 19.7819 31.2543 19.3302 31.2277C19.021 31.2091 18.7159 31.306 18.474 31.4996L15.6959 33.7183C14.8873 33.4639 14.103 33.1382 13.3521 32.7449L12.9521 29.2183C12.918 28.9108 12.771 28.6269 12.5396 28.4215C12.2014 28.1207 11.881 27.8004 11.5802 27.4621C11.3748 27.2307 11.0909 27.0837 10.7834 27.0496L7.25525 26.6558C6.8618 25.9051 6.53603 25.1207 6.28181 24.3121L8.499 21.5402C8.6926 21.2983 8.78949 20.9932 8.77087 20.684C8.74431 20.2323 8.74431 19.7794 8.77087 19.3277C8.78949 19.0185 8.6926 18.7133 8.499 18.4715L6.28181 15.6949C6.53622 14.8864 6.86198 14.102 7.25525 13.3511L10.7818 12.9511C11.0893 12.917 11.3733 12.77 11.5787 12.5386C11.8795 12.2004 12.1998 11.88 12.5381 11.5793C12.7704 11.3737 12.918 11.0891 12.9521 10.7808L13.3443 7.25427C14.0951 6.86082 14.8794 6.53505 15.6881 6.28083L18.4599 8.49802C18.7018 8.69162 19.0069 8.78851 19.3162 8.7699C19.7679 8.74333 20.2207 8.74333 20.6724 8.7699C20.9817 8.78851 21.2868 8.69162 21.5287 8.49802L24.3053 6.28083C25.1138 6.53525 25.8981 6.86101 26.649 7.25427L27.049 10.7808C27.0831 11.0884 27.2301 11.3723 27.4615 11.5777C27.7998 11.8785 28.1201 12.1988 28.4209 12.5371C28.6263 12.7685 28.9102 12.9154 29.2178 12.9496L32.7459 13.3418C33.1393 14.0926 33.4651 14.8769 33.7193 15.6855L31.5021 18.4574C31.3067 18.7013 31.2097 19.0096 31.2303 19.3215H31.2349Z" fill="#76867D"/>
</svg>
