<svg width="40" height="40" viewBox="0 0 40 40" fill="none" xmlns="http://www.w3.org/2000/svg">
<path d="M19.9569 8.18889L23.0883 14.9136L23.7672 16.346L25.2124 16.5402L32.0447 17.3899L27.0957 22.4638L26.0008 23.6048L26.2636 25.2313L27.4242 32.393L21.1832 28.9457L19.9569 28.2659L18.7087 28.9457L12.4676 32.4416L13.6282 25.2799L13.891 23.6533L12.7961 22.4638L7.8471 17.4141L14.6794 16.5402L16.1247 16.346L16.8035 14.9136L19.9569 8.18889ZM19.9569 3.3335C19.7024 3.32637 19.4511 3.39744 19.2308 3.53883C19.0105 3.68023 18.8298 3.88643 18.7087 4.13464L14.329 13.457L4.45286 14.7922C4.21476 14.8279 3.99035 14.9365 3.80485 15.1058C3.61934 15.2751 3.4801 15.4984 3.40275 15.7506C3.32541 16.0028 3.31303 16.2739 3.36701 16.5334C3.42099 16.793 3.53919 17.0307 3.70832 17.2199L10.9348 24.6972L9.27049 34.9178C9.24161 35.1319 9.2554 35.3503 9.31089 35.5578C9.36637 35.7653 9.4622 35.9568 9.59163 36.1188C9.72106 36.2808 9.88094 36.4094 10.06 36.4955C10.2391 36.5816 10.433 36.6232 10.6282 36.6172C10.8232 36.6173 11.0164 36.5761 11.1975 36.4958L19.9569 31.6404L28.7162 36.4958C28.9131 36.6063 29.1305 36.6645 29.3512 36.6658C29.5464 36.6717 29.7403 36.6302 29.9194 36.544C30.0985 36.4579 30.2583 36.3293 30.3878 36.1673C30.5172 36.0053 30.613 35.8138 30.6685 35.6064C30.724 35.3989 30.7378 35.1804 30.7089 34.9664L29.0446 24.7458L36.293 17.2442C36.4621 17.055 36.5803 16.8173 36.6343 16.5577C36.6883 16.2982 36.6759 16.027 36.5985 15.7749C36.5212 15.5227 36.382 15.2994 36.1965 15.1301C36.011 14.9608 35.7865 14.8522 35.5484 14.8165L25.6066 13.5784L21.227 4.25602C21.1102 3.99499 20.9287 3.77634 20.7037 3.62581C20.4787 3.47529 20.2196 3.39914 19.9569 3.40633V3.3335Z" fill="#76867D"/>
</svg>
